<svg xmlns="http://www.w3.org/2000/svg" viewBox="0 0 800 450" fill="none">
<defs>
<linearGradient id="g" x1="0" y1="0" x2="1" y2="1"><stop offset="0" stop-color="#2a0a1f"/><stop offset="1" stop-color="#7a0d3f"/></linearGradient>
<radialGradient id="r" cx="0.82" cy="0.18" r="0.75"><stop offset="0" stop-color="#fb356b" stop-opacity="0.55"/><stop offset="1" stop-color="#fb356b" stop-opacity="0"/></radialGradient>
<radialGradient id="r2" cx="0.12" cy="0.92" r="0.6"><stop offset="0" stop-color="#fb356b" stop-opacity="0.30"/><stop offset="1" stop-color="#fb356b" stop-opacity="0"/></radialGradient>
</defs>
<rect width="800" height="450" fill="url(#g)"/>
<g stroke="#ffffff" stroke-opacity="0.05" stroke-width="1"><line x1="0" y1="0" x2="0" y2="450"/><line x1="40" y1="0" x2="40" y2="450"/><line x1="80" y1="0" x2="80" y2="450"/><line x1="120" y1="0" x2="120" y2="450"/><line x1="160" y1="0" x2="160" y2="450"/><line x1="200" y1="0" x2="200" y2="450"/><line x1="240" y1="0" x2="240" y2="450"/><line x1="280" y1="0" x2="280" y2="450"/><line x1="320" y1="0" x2="320" y2="450"/><line x1="360" y1="0" x2="360" y2="450"/><line x1="400" y1="0" x2="400" y2="450"/><line x1="440" y1="0" x2="440" y2="450"/><line x1="480" y1="0" x2="480" y2="450"/><line x1="520" y1="0" x2="520" y2="450"/><line x1="560" y1="0" x2="560" y2="450"/><line x1="600" y1="0" x2="600" y2="450"/><line x1="640" y1="0" x2="640" y2="450"/><line x1="680" y1="0" x2="680" y2="450"/><line x1="720" y1="0" x2="720" y2="450"/><line x1="760" y1="0" x2="760" y2="450"/><line x1="800" y1="0" x2="800" y2="450"/><line x1="0" y1="0" x2="800" y2="0"/><line x1="0" y1="40" x2="800" y2="40"/><line x1="0" y1="80" x2="800" y2="80"/><line x1="0" y1="120" x2="800" y2="120"/><line x1="0" y1="160" x2="800" y2="160"/><line x1="0" y1="200" x2="800" y2="200"/><line x1="0" y1="240" x2="800" y2="240"/><line x1="0" y1="280" x2="800" y2="280"/><line x1="0" y1="320" x2="800" y2="320"/><line x1="0" y1="360" x2="800" y2="360"/><line x1="0" y1="400" x2="800" y2="400"/><line x1="0" y1="440" x2="800" y2="440"/></g>
<rect width="800" height="450" fill="url(#r)"/>
<rect width="800" height="450" fill="url(#r2)"/>
<g stroke="#fb356b" stroke-opacity="0.7" stroke-width="2" fill="none">
<path d="M150 300 L320 210 L470 280 L620 170"/>
</g>
<g fill="#fff">
<circle cx="150" cy="300" r="5"/><circle cx="320" cy="210" r="6"/><circle cx="470" cy="280" r="5"/><circle cx="620" cy="170" r="7"/>
</g>
<g fill="#fb356b" fill-opacity="0.18">
<circle cx="640" cy="120" r="90"/><circle cx="120" cy="360" r="70"/>
</g>
</svg>